<svg width="32" height="19" viewBox="0 0 32 19" fill="none" xmlns="http://www.w3.org/2000/svg">
<path d="M1.43213 4.49332H5.8171" stroke="#051928" stroke-linecap="round" stroke-linejoin="round"/>
<path d="M12.3948 4.49332H31.3963" stroke="#051928" stroke-linecap="round" stroke-linejoin="round"/>
<path d="M1.43213 14.9733H18.2412" stroke="#051928" stroke-linecap="round" stroke-linejoin="round"/>
<path d="M24.8186 14.9733H31.3961" stroke="#051928" stroke-linecap="round" stroke-linejoin="round"/>
<path d="M9.10587 7.28799C10.9222 7.28799 12.3946 5.88037 12.3946 4.14399C12.3946 2.40761 10.9222 1 9.10587 1C7.28955 1 5.81714 2.40761 5.81714 4.14399C5.81714 5.88037 7.28955 7.28799 9.10587 7.28799Z" stroke="#051928" stroke-linecap="round" stroke-linejoin="round"/>
<path d="M24.8187 15.3226C24.8187 17.0589 23.3462 18.4666 21.5299 18.4666C19.7137 18.4666 18.2412 17.0589 18.2412 15.3226C18.2412 13.5863 19.7137 12.1786 21.5299 12.1786C23.3462 12.1786 24.8187 13.5863 24.8187 15.3226V15.3226Z" stroke="#051928" stroke-linecap="round" stroke-linejoin="round"/>
</svg>
